<svg enable-background="new 0 0 600 600" viewBox="0 0 600 600" xmlns="http://www.w3.org/2000/svg"><path d="m305.4 411 28.4 28.4c3.1 3.1 3.1 8.2 0 11.3l-21.1 20.9c-1.4 1.4-2.7 1.4-3.5 1.4h-18.6c-.7 0-2.1 0-3.4-1.4l-21.4-21.1c-3.1-3.1-3.1-8.2 0-11.3l28.2-28.1c3.2-3.2 8.3-3.2 11.4-.1zm.3-116.5 28.4 28.4c3.1 3.1 3.1 8.2 0 11.3l-79.5 79.4c-1.4 1.4-2.7 1.4-3.5 1.4h-18.6c-.7 0-2.1 0-3.4-1.4l-21.4-21.3c-3.1-3.1-3.1-8.2 0-11.3l86.6-86.5c3.2-3.1 8.2-3.1 11.4 0zm0-116.2 28.4 28.4c3.1 3.1 3.1 8.2 0 11.3l-137.8 137.6c-1.4 1.4-2.7 1.4-3.5 1.4h-18.6c-.7 0-2.1 0-3.4-1.4l-21.4-21.4c-3.1-3.1-3.1-8.2 0-11.3l144.9-144.6c3.2-3.2 8.2-3.2 11.4 0zm35.5-82.3c-22.8-22.7-59.6-22.7-82.4 0l-191.7 191.4c-22.7 22.7-22.7 59.5 0 82.2l138.2 138.4c5.8 5.8 20.1 13 30.7 13h127.1c7.9 0 24.6-6 32.1-13.5l137.8-137.9c22.8-22.7 22.8-59.5 0-82.2z" fill="#fff"/></svg>