<svg width="44" height="33" viewBox="0 0 44 33" xmlns="http://www.w3.org/2000/svg"><title>Fill 71</title><path d="M43.215 1.595a.642.642 0 0 0-.092-.279.7.7 0 0 0-.078-.117.66.66 0 0 0-.117-.106c-.022-.018-.038-.042-.063-.057-.014-.008-.03-.008-.045-.015-.045-.025-.094-.038-.144-.052a.81.81 0 0 0-.145-.029c-.016-.001-.031-.01-.049-.01H1.518c-.018 0-.033.009-.051.011-.047.003-.092.015-.139.027-.051.015-.101.028-.149.053-.013.007-.029.007-.043.015-.026.015-.04.039-.064.057a.653.653 0 0 0-.195.222.751.751 0 0 0-.061.128.834.834 0 0 0-.029.152c-.004.029-.019.055-.019.085v30.57c0 .414.337.75.75.75h40.964a.75.75 0 0 0 .75-.75V1.68c0-.03-.013-.056-.017-.085zm-2.113.835C38.878 5.721 31.756 15.27 22 18.64 12.244 15.27 5.123 5.721 2.898 2.43h38.204zM2.269 4.178c2.074 2.952 6.354 8.363 12.25 12.333C8.517 21.205 4.17 27.069 2.269 29.888V4.178zM3.006 31.5c1.498-2.298 6.23-9.082 12.851-14.133 1.834 1.118 3.807 2.082 5.905 2.783l.006.001a.751.751 0 0 0 .463 0l.005-.001c2.099-.701 4.068-1.664 5.901-2.78 6.621 5.051 11.352 11.833 12.851 14.13H3.006zm38.725-1.6c-1.895-2.814-6.245-8.685-12.255-13.386 5.899-3.97 10.182-9.384 12.255-12.336V29.9z" fill="#E0E0E0" fill-rule="evenodd"/></svg>