<svg width="30" height="30" viewBox="0 0 30 30" xmlns="http://www.w3.org/2000/svg"><title>icon_twitter</title><g fill="none" fill-rule="evenodd"><path fill="#55ADEF" d="M0 0h30v30H0z"/><path d="M11.546 23.149c-2.237 0-4.319-.65-6.072-1.762.31.036.625.055.945.055a7.999 7.999 0 0 0 4.92-1.68 3.96 3.96 0 0 1-3.7-2.723 3.994 3.994 0 0 0 1.788-.067c-1.812-.36-3.177-1.946-3.177-3.846v-.05c.534.295 1.145.471 1.794.491a3.91 3.91 0 0 1-1.762-3.264c0-.719.195-1.392.536-1.972a11.283 11.283 0 0 0 8.165 4.098 3.9 3.9 0 0 1-.103-.894c0-2.166 1.774-3.922 3.961-3.922 1.14 0 2.17.477 2.892 1.239a7.981 7.981 0 0 0 2.515-.952 3.94 3.94 0 0 1-1.742 2.17 7.982 7.982 0 0 0 2.276-.617 8.007 8.007 0 0 1-1.977 2.03c.008.168.011.337.011.507 0 5.183-3.984 11.159-11.27 11.159" fill="#FFF"/></g></svg>